<?xml version="1.0" encoding="UTF-8" standalone="no"?>
<!-- Generator: Adobe Illustrator 19.0.0, SVG Export Plug-In . SVG Version: 6.00 Build 0)  -->

<svg
   xmlns:dc="http://purl.org/dc/elements/1.1/"
   xmlns:cc="http://creativecommons.org/ns#"
   xmlns:rdf="http://www.w3.org/1999/02/22-rdf-syntax-ns#"
   xmlns:svg="http://www.w3.org/2000/svg"
   xmlns="http://www.w3.org/2000/svg"
   xmlns:sodipodi="http://sodipodi.sourceforge.net/DTD/sodipodi-0.dtd"
   xmlns:inkscape="http://www.inkscape.org/namespaces/inkscape"
   version="1.1"
   id="图层_1"
   viewBox="-23 143.9 548 554"
   style="enable-background:new -23 143.9 548 554;"
   xml:space="preserve"
   inkscape:version="0.91 r13725"
   sodipodi:docname="logo.svg"><metadata
   id="metadata4167"><rdf:RDF><cc:Work
       rdf:about=""><dc:format>image/svg+xml</dc:format><dc:type
         rdf:resource="http://purl.org/dc/dcmitype/StillImage" /></cc:Work></rdf:RDF></metadata><defs
   id="defs4165" /><sodipodi:namedview
   pagecolor="#ffffff"
   bordercolor="#666666"
   borderopacity="1"
   objecttolerance="10"
   gridtolerance="10"
   guidetolerance="10"
   inkscape:pageopacity="0"
   inkscape:pageshadow="2"
   inkscape:window-width="1366"
   inkscape:window-height="705"
   id="namedview4163"
   showgrid="false"
   inkscape:zoom="0.9566787"
   inkscape:cx="274"
   inkscape:cy="277"
   inkscape:window-x="-8"
   inkscape:window-y="-8"
   inkscape:window-maximized="1"
   inkscape:current-layer="g4139" />
<style
   type="text/css"
   id="style4137">
	.st0{stroke:#000000;stroke-width:10;stroke-miterlimit:10;}

	<def>
		<style>


			.st0{
			-webkit-animation:dash 4s infinite;
			-o-animation:dash 4s infinite;
			-moz-animation:dash 4s infinite;
			-ms-animation:dash 4s infinite;
			animation:dash 4s infinite;
			}

			@-webkit-keyframes dash{
			0%{
			fill:black;
			}
			50%{
			fill:#a52424;
			}
			}

			.st0:hover{
			transform-origin: 50% 50%;
			-webkit-animation:cwk 2s ease;
			-o-animation:dash cwk 2s ease;
			-moz-animation:dash cwk 2s ease;
			-ms-animation:dash cwk 2s ease;
			animation:dash cwk 2s ease;
			}

			@-webkit-keyframes cwk{
				0% {
			        transform: skew(0deg);
			    }
			    100% {
			        transform: skew(180deg);
			    }
			}

			.st1:hover{
			stroke-dashoffset:2000;
			transform-origin: 50% 50%;
			-webkit-animation:cwk1 2s ease;
			-o-animation:dash cwk1 2s ease;
			-moz-animation:dash cwk1 2s ease;
			-ms-animation:dash cwk1 2s ease;
			animation:dash cwk1 2s ease;
			}

			@-webkit-keyframes cwk1{
				0% {
			        transform: rotate(0deg);
			    }
			    100% {
			        transform: rotate(360deg);
			    }
			}

         .st2:hover{
         -webkit-animation:col 2s ease;
         -o-animation:dash col 2s ease;
         -moz-animation:dash col 2s ease;
         -ms-animation:dash col 2s ease;
         animation:dash col 2s ease;
         }

         @-webkit-keyframes col{
            0% {
               fill:black;
             }
            50% {
             fill:red;
             }
         }



		</style>
	</def>


</style>
<g
   transform="matrix(0.10019094,0,0,-0.09999998,0.04277043,553.99998)"
   id="g4139">
	<path
   class="st2"
   d="m 2291.6234,3808.2997 c -1.8,-0.9 -40.5,-6.3 -87.3,-11.7 -395.1,-45 -835.2,-231.3 -1188,-503.1 -167.4,-129.6 -413.1,-392.4 -539.1,-576 -129.6,-189.9 -234,-404.1 -305.1,-621.9 -37.8,-116.1 -90.899997,-345.6 -110.699997,-472.5 -17.1,-110.7 -14.4,-506.7 3.6,-638.99997 81.899997,-585.9 366.299997,-1141.2 773.099997,-1507.5 l 74.7,-67.5 -64.8,72 c -323.1,360.9 -505.8,773.1 -571.5,1287 -16.2,127.8 -13.5,474.29997 5.4,607.49997 63,454.5 231.3,844.2 521.1,1206 42.3,52.2 72.9,95.4 69.3,97.2 -4.5,1.8 -26.1,-10.8 -47.7,-27 -22.5,-16.2 -57.6,-41.4 -79.2,-56.7 -20.7,-14.4 -55.8,-40.5 -77.4,-55.8 -21.6,-16.2 -40.5,-29.7 -43.2,-29.7 -8.1,0 -4.5,31.5 7.2,51.3 62.1,109.8 89.1,153.9 136.8,227.7 183.6,280.8 368.1,468.9 634.5,645.3 280.8,186.3 519.3,283.5 855,348.3 86.4,17.1 98.1,20.7 69.3,24.3 -18.9,2.7 -35.1,3.6 -36,1.8 z"
   id="path4141"
   inkscape:connector-curvature="0" />
	<path
   class="st0"
   d="m 3747.8234,3588.6997 c -126.9,-14.4 -240.3,-48.6 -376.2,-112.5 -270.9,-128.7 -430.2,-241.2 -627.3,-439.2 l -121.5,-123.3 1.8,-96.3 c 2.7,-124.2 24.3,-277.2 52.2,-369.9 11.7,-40.5 23.4,-76.5 26.1,-81 2.7,-4.5 20.7,-2.7 38.7,4.5 60.3,20.7 67.5,18 126.9,-56.7 30.6,-38.7 79.2,-98.1 108.9,-131.4 79.2,-91.8 107.1,-154.8 153.9,-355.5 7.2,-31.5 8.1,-51.3 1.8,-57.6 -10.8,-10.8 -47.7,48.6 -112.5,182.7 -62.1,128.7 -108,191.7 -207,281.7 -89.1,80.1 -84.6,79.2 -200.7,34.2 -59.4,-23.4 -63,-26.1 -54.9,-45 6.3,-14.4 5.4,-26.1 -2.7,-42.3 -10.8,-20.7 -8.1,-25.2 61.2,-99 105.3,-112.5 191.7,-243.9 238.5,-363.6 13.5,-32.4 18.9,-37.8 36,-33.3 18,4.5 21.6,-0.9 36,-46.8 36,-112.5 62.1,-207 69.3,-253.8 3.6,-27 12.6,-75.6 18.9,-108 8.1,-38.7 11.7,-130.5 10.8,-274.5 0,-184.49997 -2.7,-228.59997 -18.9,-305.99997 -10.8,-49.5 -19.8,-107.1 -19.8,-128.7 l 0,-38.7 79.2,67.5 c 43.2,36.9 100.8,90 127.8,117 l 48.6,50.4 -18.9,57.6 -18.9,58.5 28.8,2.7 28.8,2.7 -11.7,67.5 c -28.8,166.49997 -33.3,433.79997 -9,481.49997 9,17.1 9.9,17.1 16.2,-5.4 2.7,-13.5 10.8,-59.4 16.2,-103.5 27.9,-209.7 73.8,-480.59997 81.9,-480.59997 9.9,0 153,151.2 212.4,224.99997 72,90 129.6,171 129.6,184.5 0,6.3 -22.5,31.5 -50.4,56.7 l -50.4,46.8 3.6,58.5 c 2.7,39.6 0,58.5 -6.3,58.5 -6.3,0 -21.6,52.2 -36,124.2 -29.7,145.8 -51.3,212.4 -114.3,351 -45,99.9 -45.9,103.5 -28.8,116.1 16.2,11.7 16.2,13.5 1.8,24.3 -39.6,28.8 -295.2,270.9 -332.1,313.2 -60.3,69.3 -103.5,132.3 -126.9,182.7 -17.1,38.7 -19.8,60.3 -20.7,153 0,94.5 2.7,112.5 19.8,145.8 11.7,20.7 32.4,45 47.7,54 15.3,8.1 36.9,30.6 49.5,49.5 11.7,18 46.8,59.4 78.3,92.7 153.9,164.7 445.5,343.8 614.7,377.1 86.4,17.1 348.3,56.7 454.5,69.3 42.3,4.5 82.8,10.8 90,13.5 21.6,8.1 -4.5,18.9 -93.6,39.6 -63.9,14.4 -106.2,18 -228.6,17.1 -82.8,-0.9 -182.7,-5.4 -222.3,-9 z"
   id="path4143"
   inkscape:connector-curvature="0"/>
	<path
   class="st0"
   d="m 3135.8234,3507.6997 c -444.6,-132.3 -864.9,-495 -1071.9,-923.4 -24.3,-51.3 -45,-83.7 -53.1,-83.7 -17.1,0 -13.5,14.4 28.8,138.6 17.1,48.6 28.8,93.6 27,99 -6.3,18 -100.8,-141.3 -213.3,-359.1 -61.2,-118.8 -139.5,-258.3 -174.6,-310.5 -35.1,-52.2 -64.8,-97.2 -66.6,-100.8 -1.8,-3.6 18,-9 43.2,-12.6 49.5,-6.3 61.2,-15.3 45,-35.1 -9,-10.8 -1.8,-18 45.9,-40.5 l 57.6,-27 19.8,34.2 c 11.7,18 21.6,36.9 23.4,41.4 1.8,5.4 27,-8.1 56.7,-29.7 34.2,-25.2 54,-34.2 55.8,-26.1 0.9,6.3 -5.4,38.7 -14.4,71.1 -19.8,69.3 -14.4,89.1 31.5,110.7 31.5,15.3 32.4,15.3 81,-14.4 57.6,-35.1 419.4,-396.9 483.3,-484.2 51.3,-69.3 115.2,-193.5 135,-261.9 8.1,-27 18,-94.5 22.5,-150.3 4.5,-55.8 9.9,-104.4 12.6,-107.1 2.7,-1.8 12.6,0 22.5,5.4 17.1,9 17.1,7.2 9.9,-25.2 -4.5,-18.89997 -7.2,-88.19997 -6.3,-154.79997 0.9,-113.4 -6.3,-163.8 -33.3,-226.8 -6.3,-14.4 -3.6,-14.4 34.2,1.8 64.8,27.9 113.4,62.1 132.3,93.6 9.9,16.2 34.2,39.6 55.8,52.2 l 38.7,22.5 7.2,85.5 c 11.7,144.89997 2.7,352.79997 -19.8,442.79997 -62.1,248.4 -170.1,445.5 -392.4,713.7 -39.6,47.7 -81,98.1 -91.8,111.6 l -20.7,25.2 27,10.8 c 21.6,9 27,16.2 25.2,35.1 -2.7,20.7 4.5,27 67.5,57.6 54,27.9 69.3,39.6 69.3,54.9 0,9.9 -16.2,101.7 -35.1,203.4 -26.1,140.4 -37.8,183.6 -46.8,181.8 -7.2,-1.8 -37.8,-12.6 -68.4,-25.2 -30.6,-11.7 -57.6,-21.6 -60.3,-21.6 -36.9,0 87.3,235.8 185.4,350.1 72.9,86.4 148.5,147.6 313.2,256.5 66.6,44.1 157.5,104.4 201.6,133.2 44.1,29.7 94.5,61.2 113.4,70.2 18,9 37.8,23.4 44.1,30.6 10.8,12.6 8.1,14.4 -22.5,13.5 -19.8,0 -75.6,-12.6 -125.1,-27 z"
   id="path4145"
   inkscape:connector-curvature="0" />
	<path
   class="st0"
   d="m 4100.6234,3456.3997 c -85.5,-14.4 -198.9,-51.3 -325.8,-108 -49.5,-21.6 -112.5,-48.6 -139.5,-59.4 -102.6,-42.3 -188.1,-87.3 -288,-151.2 -125.1,-80.1 -263.7,-179.1 -304.2,-217.8 -73.8,-68.4 -84.6,-154.8 -34.2,-286.2 44.1,-117 81.9,-172.8 185.4,-279 72,-73.8 107.1,-101.7 148.5,-120.6 48.6,-22.5 55.8,-23.4 93.6,-13.5 51.3,13.5 56.7,18.9 154.8,138.6 75.6,91.8 142.2,194.4 155.7,237.6 6.3,19.8 39.6,33.3 63,24.3 20.7,-8.1 100.8,-128.7 140.4,-212.4 39.6,-83.7 64.8,-173.7 85.5,-314.1 8.1,-51.3 16.2,-103.5 18.9,-116.1 2.7,-12.6 9,-74.7 12.6,-139.5 4.5,-63.9 10.8,-144 14.4,-176.4 5.4,-54.9 3.6,-63.9 -19.8,-107.1 -26.1,-48.6 -73.8,-92.7 -129.6,-122.4 -22.5,-11.7 -52.2,-16.2 -103.5,-17.1 -60.3,0 -78.3,3.6 -110.7,21.6 -36.9,21.6 -37.8,21.6 -51.3,4.5 -23.4,-30.6 -16.2,-63.9 22.5,-106.2 l 36,-38.7 187.2,-6.3 c 102.6,-3.6 206.1,-7.2 229.5,-8.1 l 43.2,-1.8 26.1,76.5 c 29.7,88.2 90,278.1 90,284.4 0,1.8 -9.9,3.6 -22.5,3.6 -26.1,0 -27,3.6 -8.1,81 7.2,32.4 15.3,126 18.9,210.6 l 5.4,152.1 -28.8,-5.4 c -27,-5.4 -27.9,-5.4 -27.9,28.8 0,19.8 4.5,55.8 9.9,80.1 12.6,51.3 -1.8,219.6 -19.8,241.2 -5.4,7.2 -19.8,12.6 -30.6,12.6 -35.1,0 -63,32.4 -184.5,213.3 -65.7,98.1 -129.6,189.9 -143.1,203.4 -33.3,36.9 -68.4,53.1 -97.2,45.9 -37.8,-9 -52.2,-21.6 -101.7,-87.3 -47.7,-63.9 -94.5,-95.4 -163.8,-114.3 -70.2,-18.9 -105.3,-72 -106.2,-162.9 0,-36.9 -21.6,-64.8 -28.8,-36.9 -5.4,19.8 21.6,161.1 36,188.1 9.9,17.1 95.4,65.7 117,65.7 17.1,0 86.4,68.4 99,98.1 7.2,18 16.2,65.7 20.7,107.1 3.6,41.4 12.6,84.6 20.7,95.4 7.2,11.7 45,38.7 83.7,60.3 184.5,100.8 234.9,127.8 272.7,143.1 22.5,9 78.3,33.3 125.1,54 82.8,36 150.3,55.8 338.4,99 69.3,16.2 85.5,22.5 70.2,27.9 -55.8,20.7 -351.9,27 -455.4,9.9 z"
   id="path4147"
   inkscape:connector-curvature="0"/>
	<path
   class="st1"
   d="m 4063.7234,3121.5997 c -33.3,-9 -119.7,-29.7 -191.7,-45.9 -147.6,-33.3 -173.7,-47.7 -173.7,-94.5 l 0,-31.5 48.6,5.4 c 100.8,12.6 149.4,-29.7 315.9,-278.1 l 108,-161.1 63.9,-28.8 c 58.5,-27 67.5,-35.1 122.4,-108.9 115.2,-158.4 177.3,-296.1 205.2,-459.9 18,-99.9 18.9,-166.5 3.6,-247.5 -4.5,-21.6 -1.8,-25.2 26.1,-29.7 29.7,-6.3 31.5,-8.1 27.9,-38.7 -7.2,-71.1 -21.6,-254.7 -27,-350.1 l -6.3,-100.8 30.6,-5.4 c 17.1,-2.7 51.3,-6.3 75.6,-7.2 l 45,-1.8 7.2,63 c 3.6,35.1 5.4,182.7 2.7,328.5 l -3.6,265.5 20.7,-64.8 c 30.6,-90.9 44.1,-282.6 32.4,-453.6 -17.1,-244.8 -65.7,-443.69997 -164.7,-678.59997 -236.7,-561.6 -615.6,-928.8 -1185.3,-1151.1 -408.6,-159.3 -747.9,-186.3 -1188.9,-91.8 -378.9,80.1 -721.8,260.1 -1016.1,532.8 -141.3,130.5 -307.8,365.4 -422.1,593.1 -165.6,333 -227.7,610.19997 -214.2,961.19997 8.1,218.7 19.8,318.6 54.9,460.8 58.5,243.9 153,461.7 287.1,665.1 38.7,58.5 68.4,108 65.7,109.8 -10.8,11.7 -233.1,-253.8 -316.8,-378.9 -125.1,-186.3 -287.1,-566.1 -319.5,-749.7 -4.5,-27.9 -14.4,-83.7 -21.6,-123.3 -38.7,-219.6 -42.3,-588.59997 -7.2,-797.39997 70.2,-413.1 229.5,-765 502.2,-1106.1 116.1,-144.9 207.9,-228.6 332.1,-303.3 222.3,-133.2 375.3,-203.4 607.5,-275.40003 249.3,-78.3 383.4,-98.1 661.5,-99.9 247.5,-0.9 377.1,12.6 585,62.1 270.9,64.8 424.8,120.60003 623.7,225.90003 641.7,341.1 1099.8,942.3 1262.7,1659.6 66.6,292.49997 71.1,735.29997 11.7,1016.99997 -53.1,248.4 -154.8,529.2 -263.7,724.5 -90.9,163.8 -243.9,370.8 -375.3,507.6 -91.8,96.3 -97.2,99.9 -133.2,99 -19.8,0 -64.8,-8.1 -99,-17.1 z m 301.5,-467.1 c 118.8,-99.9 206.1,-207.9 267.3,-329.4 28.8,-58.5 77.4,-202.5 70.2,-209.7 -9.9,-9 -30.6,18 -45.9,59.4 -23.4,62.1 -45,96.3 -120.6,186.3 -37.8,45 -88.2,109.8 -111.6,145.8 -24.3,36 -60.3,79.2 -81,97.2 -20.7,18 -46.8,41.4 -57.6,51.3 -19.8,17.1 -29.7,70.2 -13.5,70.2 4.5,0 45.9,-32.4 92.7,-71.1 z"
   id="path4149"
   inkscape:connector-curvature="0" />
	<path
   class="st0"
   d="m 3756.8234,2480.7997 c -23.4,-36 -53.1,-77.4 -64.8,-91.8 -27.9,-33.3 -26.1,-42.3 32.4,-216.9 50.4,-148.5 76.5,-269.1 67.5,-315.9 -3.6,-19.8 -0.9,-41.4 8.1,-60.3 31.5,-68.4 23.4,-118.8 -11.7,-76.5 -32.4,37.8 -54.9,94.5 -85.5,216 -48.6,186.3 -88.2,322.2 -94.5,322.2 -13.5,0 -171,-92.7 -171,-100.8 0,-4.5 16.2,-30.6 36,-58.5 35.1,-49.5 35.1,-49.5 17.1,-64.8 l -18.9,-15.3 31.5,-63 c 44.1,-89.1 77.4,-191.7 94.5,-297.9 8.1,-51.3 18.9,-92.7 23.4,-92.7 4.5,0 28.8,-17.1 54,-38.7 71.1,-58.5 71.1,-58.5 125.1,-72.9 46.8,-12.6 56.7,-11.7 99,1.8 63.9,20.7 122.4,80.1 143.1,144.9 12.6,38.7 13.5,52.2 4.5,62.1 -6.3,8.1 -17.1,86.4 -26.1,189.9 -22.5,270.9 -39.6,406.8 -55.8,450.9 -16.2,42.3 -119.7,202.5 -148.5,228.6 -16.2,15.3 -18.9,13.5 -59.4,-50.4 z"
   id="path4151"
   inkscape:connector-curvature="0" />
	<path
   class="st0"
   d="m 4305.8234,2264.7997 c 4.5,-77.4 9,-95.4 24.3,-108 26.1,-22.5 97.2,-19.8 97.2,2.7 0,15.3 -110.7,197.1 -119.7,197.1 -4.5,0 -6.3,-36 -1.8,-91.8 z"
   id="path4153"
   inkscape:connector-curvature="0"/>
	<path
   class="st0"
   d="m 4396.7234,2093.7997 c -34.2,-4.5 -63,-8.1 -63.9,-9.9 -0.9,-0.9 1.8,-40.5 6.3,-87.3 8.1,-79.2 1.8,-173.7 -17.1,-262.8 -4.5,-23.4 -2.7,-25.2 23.4,-25.2 15.3,0 27.9,-4.5 27.9,-9.9 0,-6.3 -25.2,-83.7 -54.9,-173.7 -37.8,-108.9 -56.7,-181.8 -60.3,-221.4 l -3.6,-58.5 140.4,-35.1 c 77.4,-18.9 143.1,-33.3 144.9,-31.5 9,9.9 32.4,274.5 29.7,341.1 -2.7,76.5 -2.7,76.5 -27.9,79.2 -18.9,2.7 -24.3,7.2 -20.7,18 27,85.5 18.9,282.6 -17.1,395.1 -12.6,39.6 -27.9,76.5 -34.2,81 -6.3,4.5 -36,5.4 -72.9,0.9 z"
   id="path4155"
   inkscape:connector-curvature="0" />
	<path
   class="st0"
   d="m 2055.8234,1915.5997 c -30.6,-31.5 -87.3,-65.7 -136.8,-81 -18.9,-6.3 -37.8,-14.4 -41.4,-18 -4.5,-3.6 30.6,-35.1 78.3,-68.4 182.7,-129.6 36.9,-68.4 -230.4,97.2 -62.1,38.7 -123.3,70.2 -135,70.2 -12.6,0 -68.4,-37.8 -151.2,-104.4 -72,-57.6 -132.3,-106.2 -134.1,-108 -1.8,-1.8 23.4,-48.6 56.7,-103.5 60.3,-97.2 63.9,-111.6 46.8,-153 -4.5,-10.8 5.4,-22.5 41.4,-44.1 52.2,-32.4 162,-140.4 182.7,-180 7.2,-13.5 23.4,-31.5 36,-39.6 22.5,-14.4 23.4,-14.4 83.7,33.3 67.5,54 162,111.6 234,142.2 57.6,23.4 50.4,30.6 -39.6,38.7 -95.4,8.1 -117.9,14.4 -144.9,39.6 l -25.2,23.4 27,10.8 c 39.6,17.1 108.9,15.3 185.4,-5.4 81,-21.6 117.9,-22.5 231.3,-3.6 113.4,18.9 185.4,12.6 274.5,-22.5 38.7,-15.3 75.6,-27.9 82.8,-27.9 29.7,0 -87.3,138.6 -279.9,331.2 -109.8,109.8 -203.4,199.8 -207.9,199.8 -4.5,0 -19.8,-12.6 -34.2,-27 z"
   id="path4157"
   inkscape:connector-curvature="0" />
	<path
   class="st0"
   d="m 1174.7234,1581.6997 c -43.2,-40.5 -108.9,-110.7 -147.6,-156.6 -70.2,-84.6 -240.3,-315.9 -249.3,-339.3 -3.6,-9.9 12.6,-23.4 55.8,-45.9 57.6,-30.6 64.8,-36.9 100.8,-102.59997 79.2,-141.3 108,-188.1 149.4,-244.8 l 43.2,-58.5 27,30.6 c 25.2,27.9 27,28.8 36,12.6 5.4,-9 44.1,-52.2 85.5,-96.3 81.9,-82.8 179.1,-153.9 289.8,-209.7 72,-36 306.9,-122.4 314.1,-115.2 2.7,1.8 -43.2,51.3 -100.8,109.8 -196.2,196.2 -271.8,327.6 -271.8,471.6 0,37.8 3.6,72 7.2,75.6 4.5,4.5 20.7,0 36,-9 64.8,-36.9 133.2,-70.2 137.7,-66.6 1.8,2.7 -18.9,38.7 -45.9,81 -67.5,103.49997 -69.3,118.79997 -23.4,170.99997 l 36.9,41.4 -64.8,77.4 -64.8,77.4 -24.3,-65.7 c -29.7,-82.8 -33.3,-89.1 -109.8,-207 -34.2,-53.09997 -67.5,-95.39997 -72.9,-93.59997 -23.4,8.1 -3.6,63 70.2,188.99997 71.1,122.4 77.4,136.8 77.4,181.8 0,47.7 -0.9,49.5 -42.3,81 -22.5,17.1 -45.9,30.6 -51.3,28.8 -5.4,-1.8 -51.3,-59.4 -101.7,-128.7 -50.4,-68.4 -97.2,-125.1 -102.6,-125.1 -6.3,0 -14.4,6.3 -19.8,14.4 -7.2,11.7 12.6,45 99.9,165.6 76.5,105.3 109.8,158.4 108.9,174.6 -0.9,28.8 -71.1,148.5 -90,152.1 -7.2,0.9 -49.5,-30.6 -92.7,-71.1 z"
   id="path4159"
   inkscape:connector-curvature="0" />
	<path
   class="st0"
   d="m 2870.3234,642.09973 c -32.4,-21.6 -89.1,-53.1 -126,-68.4 -116.1,-48.6 -136.8,-63 -211.5,-138.6 -93.6,-96.3 -104.4,-99 -204.3,-48.6 -40.5,20.7 -96.3,51.3 -122.4,67.5 -45,29.7 -64.8,36.9 -64.8,25.2 0,-3.6 41.4,-49.5 90.9,-103.5 50.4,-54 90,-99.9 88.2,-100.8 -1.8,-1.8 -28.8,-14.4 -60.3,-27.9 -30.6,-13.5 -75.6,-33.3 -98.1,-43.2 l -42.3,-18.9 34.2,-29.7 c 69.3,-59.4 218.7,-126 341.1,-152.0999999 94.5,-20.7000001 287.1,-18.0000001 387.9,5.4 87.3,19.7999999 216.9,78.2999999 249.3,112.4999999 l 19.8,20.7 -59.4,71.1 c -117,140.4 -161.1,245.7 -162,387 0,45 0,82.8 -0.9,82.8 0,0 -27,-18.9 -59.4,-40.5 z"
   id="path4161"
   inkscape:connector-curvature="0" />
</g>
</svg>